<svg
    width="50"
    height="23"
    viewBox="0 0 50 23"
    fill="currentColor"
    xmlns="http://www.w3.org/2000/svg"
  >
<path d="M0.461539 5.76923H2.92308V8.23077H0.461539V5.76923ZM0.461539 8.23077H2.92308V10.6923H0.461539V8.23077ZM0.461539 10.6923H2.92308V13.1538H0.461539V10.6923ZM0.461539 13.1538H2.92308V15.6154H0.461539V13.1538ZM2.92308 15.6154H5.38462V18.0769H2.92308V15.6154ZM2.92308 18.0769H5.38462V20.5385H2.92308V18.0769ZM5.38462 18.0769H7.84615V20.5385H5.38462V18.0769ZM7.84615 20.5385H10.3077V23H7.84615V20.5385ZM10.3077 20.5385H12.7692V23H10.3077V20.5385ZM12.7692 20.5385H15.2308V23H12.7692V20.5385ZM15.2308 20.5385H17.6923V23H15.2308V20.5385ZM17.6923 18.0769H20.1538V20.5385H17.6923V18.0769ZM20.1538 15.6154H22.6154V18.0769H20.1538V15.6154ZM20.1538 13.1538H22.6154V15.6154H20.1538V13.1538ZM20.1538 10.6923H22.6154V13.1538H20.1538V10.6923ZM17.6923 8.23077H20.1538V10.6923H17.6923V8.23077ZM15.2308 8.23077H17.6923V10.6923H15.2308V8.23077ZM12.7692 10.6923H15.2308V13.1538H12.7692V10.6923ZM10.3077 13.1538H12.7692V15.6154H10.3077V13.1538ZM7.84615 13.1538H10.3077V15.6154H7.84615V13.1538ZM5.38462 10.6923H7.84615V13.1538H5.38462V10.6923ZM5.38462 8.23077H7.84615V10.6923H5.38462V8.23077ZM7.84615 8.23077H10.3077V10.6923H7.84615V8.23077ZM2.92308 3.30769H5.38462V5.76923H2.92308V3.30769ZM5.38462 0.846153H7.84615V3.30769H5.38462V0.846153ZM7.84615 0.846153H10.3077V3.30769H7.84615V0.846153ZM10.3077 0.846153H12.7692V3.30769H10.3077V0.846153ZM12.7692 0.846153H15.2308V3.30769H12.7692V0.846153ZM12.7692 3.30769H15.2308V5.76923H12.7692V3.30769ZM15.2308 3.30769H17.6923V5.76923H15.2308V3.30769ZM17.6923 3.30769H20.1538V5.76923H17.6923V3.30769ZM20.1538 0.846153H22.6154V3.30769H20.1538V0.846153ZM25.0865 10.6923H27.5481V13.1538H25.0865V10.6923ZM27.5481 10.6923H30.0096V13.1538H27.5481V10.6923ZM27.5481 8.23077H30.0096V10.6923H27.5481V8.23077ZM25.0865 5.76923H27.5481V8.23077H25.0865V5.76923ZM25.0865 3.30769H27.5481V5.76923H25.0865V3.30769ZM27.5481 0.846153H30.0096V3.30769H27.5481V0.846153ZM30.0096 0.846153H32.4712V3.30769H30.0096V0.846153ZM32.4712 3.30769H34.9327V5.76923H32.4712V3.30769ZM34.9327 0.846153H37.3942V3.30769H34.9327V0.846153ZM37.3942 0.846153H39.8558V3.30769H37.3942V0.846153ZM39.8558 0.846153H42.3173V3.30769H39.8558V0.846153ZM42.3173 3.30769H44.7788V5.76923H42.3173V3.30769ZM42.3173 5.76923H44.7788V8.23077H42.3173V5.76923ZM44.7788 3.30769H47.2404V5.76923H44.7788V3.30769ZM44.7788 0.846153H47.2404V3.30769H44.7788V0.846153ZM47.2404 0.846153H49.7019V3.30769H47.2404V0.846153ZM39.8558 5.76923H42.3173V8.23077H39.8558V5.76923ZM37.3942 8.23077H39.8558V10.6923H37.3942V8.23077ZM34.9327 8.23077H37.3942V10.6923H34.9327V8.23077ZM32.4712 5.76923H34.9327V8.23077H32.4712V5.76923ZM32.4712 8.23077H34.9327V10.6923H32.4712V8.23077ZM32.4712 10.6923H34.9327V13.1538H32.4712V10.6923ZM32.4712 13.1538H34.9327V15.6154H32.4712V13.1538ZM32.4712 15.6154H34.9327V18.0769H32.4712V15.6154ZM34.9327 20.5385H37.3942V23H34.9327V20.5385ZM37.3942 20.5385H39.8558V23H37.3942V20.5385ZM32.4712 18.0769H34.9327V20.5385H32.4712V18.0769ZM30.0096 15.6154H32.4712V18.0769H30.0096V15.6154ZM27.5481 15.6154H30.0096V18.0769H27.5481V15.6154ZM25.0865 18.0769H27.5481V20.5385H25.0865V18.0769ZM25.0865 20.5385H27.5481V23H25.0865V20.5385ZM27.5481 20.5385H30.0096V23H27.5481V20.5385ZM39.8558 20.5385H42.3173V23H39.8558V20.5385ZM42.3173 20.5385H44.7788V23H42.3173V20.5385ZM44.7788 18.0769H47.2404V20.5385H44.7788V18.0769ZM47.2404 15.6154H49.7019V18.0769H47.2404V15.6154ZM47.2404 13.1538H49.7019V15.6154H47.2404V13.1538ZM47.2404 10.6923H49.7019V13.1538H47.2404V10.6923ZM44.7788 8.23077H47.2404V10.6923H44.7788V8.23077Z" fill="black"/>
</svg>
