<svg width="24" height="16" viewBox="0 0 24 16" fill="none" xmlns="http://www.w3.org/2000/svg">
<path fill-rule="evenodd" clip-rule="evenodd" d="M24 1.33301C24 0.780723 23.5523 0.333008 23 0.333008H1.66667C1.11439 0.333008 0.66667 0.780723 0.66667 1.33301C0.66667 1.88529 1.11439 2.33301 1.66667 2.33301H23C23.5523 2.33301 24 1.88529 24 1.33301ZM24 7.99968C24 7.44739 23.5523 6.99968 23 6.99968H8.33334C7.78105 6.99968 7.33334 7.44739 7.33334 7.99968C7.33334 8.55196 7.78105 8.99968 8.33334 8.99968H23C23.5523 8.99968 24 8.55196 24 7.99968ZM24 14.6663C24 14.1141 23.5523 13.6663 23 13.6663H16.3333C15.781 13.6663 15.3333 14.1141 15.3333 14.6663C15.3333 15.2186 15.781 15.6663 16.3333 15.6663H23C23.5523 15.6663 24 15.2186 24 14.6663Z" fill="black"/>
</svg>
